<?xml version="1.0" encoding="utf-8"?>
<!-- Generator: Adobe Illustrator 21.0.2, SVG Export Plug-In . SVG Version: 6.00 Build 0)  -->
<svg version="1.1" id="Layer_1" xmlns="http://www.w3.org/2000/svg" xmlns:xlink="http://www.w3.org/1999/xlink" x="0px" y="0px"
	 viewBox="0 0 202 52" style="enable-background:new 0 0 202 52;" xml:space="preserve">
<style type="text/css">
	.st0{fill:#FFFFFF;}
	.st1{fill:#005C94;}
</style>
<g>
	<path class="st0" d="M16.1,23.7c1.9,1.8,2.4,4,2.4,5.9c0,5.4-3.5,9.1-9.1,9.1c-2.4,0-6.3-0.7-8.2-2.7c-0.4-1.5-0.2-4.6,0.6-6.8h0.4
		c-0.5,5,2.7,8.2,7,8c3.5-0.2,6.5-2.6,6.5-6.5c0-1.9-0.7-3.4-1.9-4.5l-9.3-8.6c-2-1.8-2.6-4.1-2.6-6c0-4.1,3-8.2,8.5-8.2
		c1.3,0,2.9,0.2,4.2,0.5h1.9v0.6v5.4H16c0-3.1-2.4-5-5.5-5c-3.6,0-6,2.6-6,5.6c0,1.3,0.4,3.1,2,4.5L16.1,23.7z"/>
	<path class="st0" d="M75.8,30.2L73,38H52.8l0-0.5h0.6c1.7,0,3.1-1.4,3.1-3.1V7.6c0-1.7-1.4-3.1-3.1-3.1h-0.6l0-0.5h10.6l0,0.5h-0.6
		c-1.7,0-3.1,1.4-3.1,3.1v28.9h7c5.1,0,7.1-2.7,8.6-6.4L75.8,30.2z"/>
	<path class="st0" d="M95.6,4c2.1,0,4.9-0.5,5.8-0.9v6.1l-0.5,0V8.4c0-1.6-1.2-2.8-2.8-2.9H89v29.1c0.1,1.7,1.4,3,3.1,3h0.6l0,0.5
		H82.1l0-0.5h0.6c1.7,0,3-1.3,3.1-3V5.5h-9.2c-1.5,0.1-2.8,1.3-2.8,2.9v0.9l-0.5,0V3.1C74.2,3.5,77.1,4,79.2,4H95.6z"/>
	<path class="st1" d="M114.9,4.1c6.8,0,10.5,3.3,10.6,8.1c0,4.1-2.6,6.6-5.4,7.4c5.2,0.8,8.3,4.6,8.3,9.4c0,5.5-4.1,9.1-11.3,9.1
		h-11.8l0-0.5h0.6c1.7,0,3.1-1.3,3.1-3v-27c0-1.7-1.4-3-3.1-3h-0.6l0-0.5L114.9,4.1z M116.9,36.3c5,0,7.8-2.8,7.8-7.7
		c0-7.3-6.3-8.5-11-8.5l0-0.5c3,0,8-0.9,8-7.1c0-4.4-2.5-6.9-7.1-6.9h-2.6v30.6H116.9z"/>
	<path class="st1" d="M167.2,21c0,10.6-7.1,17.7-17.4,17.7s-17.4-7.1-17.4-17.7c0-10.6,7.1-17.7,17.4-17.7S167.2,10.4,167.2,21
		 M163.4,21c0-9.7-5.5-16.2-13.7-16.2S136,11.3,136,21c0,9.7,5.5,16.2,13.7,16.2S163.4,30.8,163.4,21"/>
	<path class="st1" d="M200.3,37.5V38h-11.8v-0.5h0.6c1.3,0,2.5-1.6,1.7-3l-7.5-11.8l-7.5,11.8c-0.8,1.4,0.4,3,1.7,3h0.6V38h-11v-0.5
		h0.7c2,0,3.9-1.4,4.9-2.9l9.3-13.8l-8.5-13.4c-1-1.5-2.9-2.9-4.9-2.9h-0.7V4.1h11.8v0.5h-0.6c-1.3,0-2.5,1.6-1.7,3l6.7,10.5
		l6.6-10.4c0.8-1.4-0.3-3-1.7-3h-0.6V4.1h10.9v0.5h-0.7c-2,0-3.9,1.4-4.9,2.9l-8.5,12.5l9.4,14.8c1,1.5,2.9,2.8,4.9,2.8H200.3z"/>
	<path class="st1" d="M32.2,0.7l-11,12.1v1.1l0.5-0.6V38h9.8V30h3.7V38h15.1V21.8l0.5,0.5v-1L32.2,0.7z M28.5,34.7h-2.5v-4.1h2.5
		V34.7z M28.5,19.9h-2.5v-4.1h2.5V19.9z M40.7,34.7h-2.5v-4.1h2.5V34.7z M40.7,19.9h-2.5v-4.1h2.5V19.9z M48.2,34.7h-2.5v-4.1h2.5
		V34.7z"/>
	<path class="st0" d="M6.9,42.9c0.5,0,1.3-0.1,1.5-0.2v1.5l-0.1,0V44c0-0.4-0.3-0.7-0.7-0.7H5.2v6.9C5.2,50.6,5.5,51,6,51h0.2l0,0.1
		H3.3l0-0.1h0.2c0.4,0,0.8-0.3,0.8-0.7v-6.9H1.8c-0.4,0-0.7,0.3-0.7,0.7v0.2l-0.1,0v-1.5c0.2,0.1,1,0.2,1.5,0.2H6.9z"/>
	<path class="st0" d="M18.8,51.1l0-0.1H19c0.4,0,0.8-0.3,0.8-0.7v-3h-5v3c0,0.4,0.4,0.7,0.8,0.7h0.2l0,0.1h-2.8l0-0.1h0.2
		c0.4,0,0.8-0.3,0.8-0.7v-6.4c0-0.4-0.4-0.7-0.8-0.7h-0.2l0-0.1h2.8l0,0.1h-0.2c-0.4,0-0.8,0.3-0.8,0.7v3.1h5v-3.1
		c0-0.4-0.4-0.7-0.8-0.7h-0.2l0-0.1h2.8l0,0.1h-0.2c-0.4,0-0.8,0.3-0.8,0.7v6.4c0,0.4,0.4,0.7,0.8,0.7h0.2l0,0.1L18.8,51.1z"/>
	<path class="st0" d="M32.1,51.1h-5.5l0-0.1h0.2c0.4,0,0.8-0.3,0.8-0.7v-6.4c0-0.4-0.3-0.7-0.8-0.7h-0.2l0-0.1h4
		c0.5,0,1.3-0.1,1.5-0.2v1.5l-0.1,0v-0.2c0-0.4-0.3-0.7-0.7-0.7h-2.8v3.5h2.3c0.4,0,0.6-0.3,0.6-0.6v-0.2l0.1,0V48l-0.1,0v-0.2
		c0-0.3-0.2-0.6-0.5-0.6h-2.4v3.5h2.1c1.3,0,1.8-0.7,2.2-1.5h0.1L32.1,51.1z"/>
	<path class="st0" d="M44.7,50.2c0.3,0.6,0.7,0.8,1,0.8h0.1v0.1h-2.8V51h0.1c0.3,0,0.7-0.3,0.5-0.8l-0.7-1.8h-3.4l-0.7,1.8
		c-0.2,0.5,0.1,0.9,0.5,0.9h0.1v0.1h-2.6V51h0.1c0.4,0,0.8-0.2,1.1-0.8l2.8-6c0,0,0.5-1,0.5-1.4h0.1L44.7,50.2z M42.8,47.9l-1.5-3.7
		l-1.6,3.7H42.8z"/>
	<path class="st0" d="M54.5,42.9c0.5,0,1.3-0.1,1.5-0.2v1.5l-0.1,0V44c0-0.4-0.3-0.7-0.7-0.7h-2.5v6.9c0,0.4,0.4,0.7,0.8,0.7h0.2
		l0,0.1h-2.8l0-0.1h0.2c0.4,0,0.8-0.3,0.8-0.7v-6.9h-2.5c-0.4,0-0.7,0.3-0.7,0.7v0.2l-0.1,0v-1.5c0.2,0.1,1,0.2,1.5,0.2H54.5z"/>
	<path class="st0" d="M63.9,43c1.7,0,2.8,0.8,2.8,2.2c0,1.2-0.9,2.1-2.1,2.2c0.3,0.1,0.8,0.7,1,1.1c0,0,0.6,0.9,1.2,1.5
		c0.6,0.6,0.9,1,1.7,1v0.1h-0.4c-1.5,0-2.1-0.7-2.5-1.2c-0.2-0.2-1.2-1.7-1.3-1.9c-0.4-0.5-0.8-0.9-1.4-0.9V47c0,0,0.3,0,0.8,0
		c0.8,0,1.6,0,2-1.2c0.1-0.2,0.1-0.5,0.1-0.8c0-1-0.7-1.6-1.8-1.7c-0.8,0-1.4,0-1.6,0v6.9c0,0.4,0.3,0.7,0.8,0.7h0.2l0,0.1h-2.8
		l0-0.1h0.2c0.4,0,0.8-0.3,0.8-0.7v-6.5c0-0.4-0.3-0.7-0.8-0.7h-0.2l0-0.1L63.9,43z"/>
	<path class="st0" d="M78.1,51.1h-5.5l0-0.1h0.2c0.4,0,0.8-0.3,0.8-0.7v-6.4c0-0.4-0.3-0.7-0.8-0.7h-0.2l0-0.1h4
		c0.5,0,1.3-0.1,1.5-0.2v1.5l-0.1,0v-0.2c0-0.4-0.3-0.7-0.7-0.7h-2.8v3.5h2.3c0.4,0,0.6-0.3,0.6-0.6v-0.2l0.1,0V48l-0.1,0v-0.2
		c0-0.3-0.2-0.6-0.5-0.6h-2.4v3.5h2.1c1.3,0,1.8-0.7,2.2-1.5h0.1L78.1,51.1z"/>
	<path class="st0" d="M98.7,47.7l-0.1,1.9c-0.7,1.1-2.1,1.8-3.7,1.8c-2.8,0-4.5-1.6-4.5-4.3c0-2.6,1.7-4.3,4.5-4.3
		c1.1,0,2.3,0.3,3.2,0.8l0.3,1.9h-0.1c-0.4-1.7-1.7-2.3-3.4-2.3c-2.2,0-3.5,1.5-3.5,3.9c0,2.3,1.3,3.8,3.5,3.8c2,0,3.6-1,3.8-3.2
		L98.7,47.7z"/>
	<path class="st0" d="M112.9,47c0,2.5-2,4.3-4.6,4.3c-2.5,0-4.6-1.7-4.6-4.3c0-2.5,2-4.3,4.6-4.3C110.9,42.8,112.9,44.5,112.9,47
		 M111.9,47c0-2.3-1.6-3.9-3.6-3.9c-2,0-3.6,1.6-3.6,3.9c0,2.3,1.6,3.9,3.6,3.9C110.3,50.9,111.9,49.3,111.9,47"/>
	<path class="st0" d="M123.9,49.2l-0.7,1.9h-5.5l0-0.1h0.2c0.4,0,0.8-0.3,0.8-0.7v-6.4c0-0.4-0.4-0.7-0.8-0.7h-0.2l0-0.1h2.8l0,0.1
		h-0.2c-0.4,0-0.8,0.3-0.8,0.7v6.9h2.1c1.3,0,1.8-0.7,2.2-1.5H123.9z"/>
	<path class="st0" d="M134.4,49.2l-0.7,1.9h-5.5l0-0.1h0.2c0.4,0,0.8-0.3,0.8-0.7v-6.4c0-0.4-0.4-0.7-0.8-0.7h-0.2l0-0.1h2.8l0,0.1
		h-0.2c-0.4,0-0.8,0.3-0.8,0.7v6.9h2.1c1.3,0,1.8-0.7,2.2-1.5H134.4z"/>
	<path class="st0" d="M144.2,51.1h-5.5l0-0.1h0.2c0.4,0,0.8-0.3,0.8-0.7v-6.4c0-0.4-0.3-0.7-0.8-0.7h-0.2l0-0.1h4
		c0.5,0,1.3-0.1,1.5-0.2v1.5l-0.1,0v-0.2c0-0.4-0.3-0.7-0.7-0.7h-2.8v3.5h2.3c0.4,0,0.6-0.3,0.6-0.6v-0.2l0.1,0V48l-0.1,0v-0.2
		c0-0.3-0.2-0.6-0.5-0.6h-2.4v3.5h2.1c1.3,0,1.8-0.7,2.2-1.5h0.1L144.2,51.1z"/>
	<path class="st0" d="M157.9,47.7l-0.1,1.9c-0.7,1.1-2.1,1.8-3.7,1.8c-2.8,0-4.5-1.6-4.5-4.3c0-2.6,1.7-4.3,4.5-4.3
		c1.1,0,2.3,0.3,3.2,0.8l0.3,1.9h-0.1c-0.4-1.7-1.7-2.3-3.4-2.3c-2.2,0-3.5,1.5-3.5,3.9c0,2.3,1.3,3.8,3.5,3.8c2,0,3.6-1,3.8-3.2
		L157.9,47.7z"/>
	<path class="st0" d="M168.1,42.9c0.5,0,1.3-0.1,1.5-0.2v1.5l-0.1,0V44c0-0.4-0.3-0.7-0.7-0.7h-2.5v6.9c0,0.4,0.4,0.7,0.8,0.7h0.2
		l0,0.1h-2.8l0-0.1h0.2c0.4,0,0.8-0.3,0.8-0.7v-6.9H163c-0.4,0-0.7,0.3-0.7,0.7v0.2l-0.1,0v-1.5c0.2,0.1,1,0.2,1.5,0.2H168.1z"/>
	<path class="st0" d="M174.1,51.1l0-0.1h0.2c0.5,0,0.9-0.3,0.9-0.7v-6.4c0-0.4-0.4-0.7-0.9-0.7h-0.2l0-0.1h3.1v0.1H177
		c-0.5,0-0.9,0.3-0.9,0.7v6.4c0,0.4,0.4,0.7,0.9,0.7h0.2l0,0.1H174.1z"/>
	<path class="st0" d="M190.5,43v0.1h-0.1c-0.4,0-0.8,0.2-1.1,0.8l-2.8,6c0,0-0.5,1-0.5,1.4h-0.1l-3.4-7.4c-0.3-0.6-0.7-0.8-1.1-0.8
		h-0.1V43h2.8v0.1h-0.1c-0.3,0-0.6,0.3-0.5,0.8l2.4,5.9l2.5-5.9c0.2-0.5-0.1-0.9-0.5-0.9h-0.1V43H190.5z"/>
	<path class="st0" d="M200.3,51.1h-5.5l0-0.1h0.2c0.4,0,0.8-0.3,0.8-0.7v-6.4c0-0.4-0.3-0.7-0.8-0.7h-0.2l0-0.1h4
		c0.5,0,1.3-0.1,1.5-0.2v1.5l-0.1,0v-0.2c0-0.4-0.3-0.7-0.7-0.7h-2.8v3.5h2.3c0.4,0,0.6-0.3,0.6-0.6v-0.2l0.1,0V48l-0.1,0v-0.2
		c0-0.3-0.2-0.6-0.5-0.6h-2.4v3.5h2.1c1.3,0,1.8-0.7,2.2-1.5h0.1L200.3,51.1z"/>
</g>
</svg>
